<?xml version="1.0" standalone="no"?>
<!DOCTYPE svg PUBLIC "-//W3C//DTD SVG 20010904//EN"
 "http://www.w3.org/TR/2001/REC-SVG-20010904/DTD/svg10.dtd">
<svg version="1.0" xmlns="http://www.w3.org/2000/svg"
 width="600.000000pt" height="296.000000pt" viewBox="0 0 600.000000 296.000000"
 preserveAspectRatio="xMidYMid meet">
<g transform="translate(0.000000,296.000000) scale(0.100000,-0.100000)"
fill="#000000" stroke="none">
<path d="M4670 2443 c-393 -39 -788 -116 -1290 -253 -330 -89 -339 -93 -340
-126 0 -6 78 11 188 43 396 114 863 219 1162 262 237 34 381 44 583 38 203 -6
268 -17 358 -62 144 -73 133 -202 -31 -364 -289 -288 -991 -628 -1955 -946
-1183 -392 -2165 -566 -2578 -459 -351 91 -230 361 305 679 72 43 214 119 318
171 127 63 193 102 204 120 10 14 16 27 14 29 -2 1 -115 -55 -253 -124 -154
-78 -249 -131 -247 -139 1 -8 -2 -11 -8 -7 -15 9 -151 -75 -143 -88 3 -6 1 -7
-5 -3 -22 14 -201 -123 -303 -231 -84 -89 -119 -158 -119 -232 0 -120 94 -191
295 -227 95 -17 376 -19 526 -4 560 55 1305 237 2149 525 102 35 198 68 214
74 16 7 49 9 76 5 54 -7 87 6 92 37 2 17 32 32 153 80 83 32 157 61 166 64 13
4 19 -5 28 -37 24 -97 81 -148 164 -148 61 0 110 25 183 93 50 47 56 56 50 80
l-7 28 -47 -40 c-79 -67 -145 -77 -190 -28 -18 20 -48 104 -40 112 2 2 59 29
128 60 619 279 1001 578 1000 782 -1 122 -109 199 -327 232 -65 10 -388 13
-473 4z m-351 -1100 c2 -21 4 -48 5 -61 1 -13 6 -20 14 -17 19 7 14 -13 -5
-24 -15 -8 -16 -12 -5 -23 11 -11 13 -11 10 1 -5 23 19 23 43 -1 12 -13 19
-18 16 -12 -5 9 5 8 35 -1 35 -10 48 -10 76 2 43 18 67 11 25 -7 -17 -8 -30
-17 -27 -21 2 -4 -3 -10 -12 -13 -8 -3 -12 -2 -9 4 3 6 -1 7 -9 4 -9 -3 -14
-10 -11 -14 3 -4 -5 -8 -18 -7 -12 0 -42 -3 -67 -7 -32 -5 -41 -4 -30 3 12 9
10 11 -10 11 -14 0 -32 5 -40 10 -15 9 -16 13 -19 48 -1 15 -3 15 -11 2 -9
-13 -10 -13 -11 0 -1 18 -6 49 -13 75 -2 11 -5 24 -5 28 -1 5 -5 5 -11 2 -5
-3 -10 -3 -10 2 0 4 22 18 48 30 26 11 47 22 47 22 1 1 3 -16 4 -36z m291 -67
c0 -2 -8 -10 -17 -17 -16 -13 -17 -12 -4 4 13 16 21 21 21 13z m-752 -102 c-2
-8 -7 -15 -13 -16 -5 0 -20 -4 -32 -9 -13 -5 -33 -4 -45 1 -21 8 -22 9 -3 11
11 1 28 1 38 1 10 -1 16 2 12 7 -4 8 10 16 38 20 5 0 7 -6 5 -15z"/>
<path d="M4303 1196 c-9 -11 -9 -15 0 -19 7 -3 14 3 14 14 2 22 2 22 -14 5z"/>
<path d="M4418 1183 c6 -2 10 -9 7 -14 -4 -5 1 -6 10 -2 13 5 14 7 3 14 -7 5
-17 8 -23 8 -5 0 -4 -3 3 -6z"/>
<path d="M2630 2269 c-36 -10 -79 -18 -97 -18 -21 -1 -36 -8 -42 -20 -14 -24
-5 -31 40 -31 42 0 69 -20 63 -47 -2 -10 -12 -65 -23 -123 -11 -58 -50 -256
-86 -441 -36 -184 -65 -355 -65 -380 0 -107 69 -117 183 -26 59 48 90 93 78
115 -9 17 -15 15 -61 -30 -28 -27 -57 -47 -63 -45 -25 8 -16 82 52 427 111
565 122 621 116 631 -8 11 -15 10 -95 -12z m65 -56 c-3 -26 -12 -72 -19 -103
-7 -30 -14 -68 -15 -84 0 -16 -5 -34 -11 -41 -5 -6 -7 -15 -4 -18 4 -3 3 -14
-1 -24 -9 -22 -11 -31 -20 -113 -4 -36 -11 -69 -15 -75 -12 -17 -23 -69 -21
-99 2 -20 -1 -26 -9 -21 -9 5 -11 -3 -9 -31 2 -22 -2 -57 -8 -79 -7 -22 -14
-60 -17 -85 -3 -25 -12 -73 -19 -106 -12 -51 -12 -67 -1 -93 7 -17 20 -31 28
-31 8 0 13 -7 12 -16 -3 -21 -32 -37 -49 -28 -9 6 -9 5 0 -7 10 -12 7 -14 -15
-13 -55 2 -65 4 -59 11 4 3 3 11 -2 17 -8 10 -5 36 16 154 3 17 9 32 14 32 5
0 9 5 9 11 0 5 -5 7 -12 3 -8 -5 -9 -2 -5 10 4 9 14 56 23 104 9 48 21 95 26
105 5 10 6 28 2 39 -4 15 -3 18 6 13 10 -6 12 0 7 24 -4 19 -3 30 2 26 6 -3 9
7 9 22 0 16 3 44 7 63 5 19 9 46 11 60 1 14 10 54 18 90 9 36 18 83 21 104 2
22 8 42 12 45 13 10 9 94 -5 119 -8 13 -19 21 -26 19 -7 -3 -13 1 -13 8 0 8
10 12 24 10 13 -1 26 2 29 7 4 5 16 7 28 4 11 -3 28 -1 36 4 8 5 16 10 18 10
1 0 0 -21 -3 -47z m-67 -989 c-12 -12 -17 -13 -23 -3 -5 8 -4 10 4 5 6 -4 14
0 17 9 4 9 9 13 12 10 3 -3 -1 -13 -10 -21z m-38 -19 c0 -8 -4 -15 -10 -15 -5
0 -7 7 -4 15 4 8 8 15 10 15 2 0 4 -7 4 -15z"/>
<path d="M2600 2216 c7 -7 13 -7 20 0 6 6 3 10 -10 10 -13 0 -16 -4 -10 -10z"/>
<path d="M2651 2134 c0 -11 3 -14 6 -6 3 7 2 16 -1 19 -3 4 -6 -2 -5 -13z"/>
<path d="M2621 2124 c0 -11 3 -14 6 -6 3 7 2 16 -1 19 -3 4 -6 -2 -5 -13z"/>
<path d="M2611 2034 c0 -11 3 -14 6 -6 3 7 2 16 -1 19 -3 4 -6 -2 -5 -13z"/>
<path d="M2531 1574 c0 -11 3 -14 6 -6 3 7 2 16 -1 19 -3 4 -6 -2 -5 -13z"/>
<path d="M2445 1199 c-4 -6 -4 -13 -1 -16 3 -4 6 -1 6 6 0 7 5 9 12 5 7 -4 8
-3 4 4 -9 15 -13 15 -21 1z"/>
<path d="M2484 1179 c-3 -6 -1 -16 6 -22 10 -9 11 -9 5 2 -4 8 -2 17 6 22 9 6
10 9 2 9 -6 0 -15 -5 -19 -11z"/>
<path d="M2980 2279 c-13 -5 -58 -16 -100 -23 -65 -11 -75 -15 -78 -34 -3 -19
1 -22 35 -22 22 0 47 -6 57 -13 18 -13 16 -24 -28 -253 -148 -753 -149 -760
-116 -799 28 -34 101 -9 181 63 58 52 72 75 64 103 -6 18 -12 15 -61 -31 -30
-28 -60 -50 -67 -47 -23 8 -10 103 82 565 50 255 91 472 91 483 0 21 -20 24
-60 8z m30 -34 c-7 -8 -10 -22 -6 -31 3 -8 1 -25 -6 -37 -6 -12 -12 -40 -13
-62 -3 -43 -3 -46 -35 -199 -11 -54 -20 -111 -20 -128 0 -16 -4 -27 -8 -24 -5
3 -8 -8 -7 -24 1 -17 -1 -30 -5 -30 -4 0 -4 -14 -2 -31 3 -22 1 -30 -7 -25 -7
5 -11 -1 -10 -16 0 -13 -2 -36 -5 -53 -3 -16 -12 -66 -19 -110 -9 -52 -16 -73
-20 -60 -3 11 -4 3 -1 -17 3 -21 0 -39 -7 -43 -6 -4 -8 -17 -5 -30 3 -12 3
-25 -1 -29 -10 -10 -11 -46 -1 -46 4 0 8 -5 8 -11 0 -5 -4 -7 -10 -4 -5 3 -10
2 -10 -4 0 -13 39 -25 70 -22 21 3 22 1 11 -13 -7 -9 -17 -13 -22 -10 -5 3 -9
0 -9 -6 0 -7 -8 -9 -19 -5 -11 3 -22 1 -26 -4 -3 -7 0 -8 10 -5 10 4 14 2 10
-8 -5 -12 -30 -15 -85 -9 -13 1 -13 2 0 12 9 7 11 12 4 15 -12 5 -4 79 11 104
8 13 6 13 -8 1 -16 -13 -16 -11 -1 24 8 21 13 44 10 52 -3 8 -2 11 3 8 5 -3 9
9 9 27 0 18 7 69 16 113 9 44 19 98 22 120 3 22 8 42 12 45 4 3 9 19 10 35 3
35 10 70 13 70 1 0 3 11 4 25 1 14 10 61 19 104 9 44 14 86 12 93 -3 8 -2 11
3 8 6 -3 9 9 9 26 -1 17 4 34 10 37 5 4 10 18 10 32 1 56 5 81 13 86 5 3 7 10
4 15 -4 5 0 9 7 9 9 0 9 3 -2 10 -9 6 -18 6 -25 -1 -6 -6 -5 -13 5 -19 9 -6
10 -10 3 -10 -14 0 -43 28 -43 42 0 5 6 8 14 5 7 -3 36 1 62 8 27 7 51 14 53
14 2 1 -2 -6 -9 -14z"/>
<path d="M2074 2252 c-12 -2 -28 -11 -37 -20 -8 -9 -84 -143 -169 -297 -278
-501 -350 -629 -386 -684 -35 -53 -77 -81 -122 -81 -19 0 -21 -3 -24 -31 -2
-17 332 -18 339 -1 9 24 5 32 -15 32 -35 0 -80 29 -80 51 0 31 37 113 102 226
l59 102 167 -2 167 -2 17 -135 c11 -82 14 -151 10 -175 -7 -36 -12 -41 -52
-55 -45 -15 -60 -26 -60 -45 0 -6 68 -10 185 -10 102 0 185 3 185 7 0 3 2 13
6 21 3 10 -4 16 -24 20 -17 3 -41 16 -56 29 -24 22 -29 45 -106 537 -44 283
-81 515 -82 516 -2 0 -13 -1 -24 -3z m-4 -32 c1 12 3 11 11 -3 13 -23 2 -42
-16 -27 -10 8 -14 7 -18 -2 -2 -7 -7 -10 -11 -6 -4 3 -2 16 4 28 10 18 14 20
21 9 7 -12 9 -11 9 1z m26 -81 c1 -19 2 -53 3 -77 1 -24 5 -41 9 -38 5 3 8
-17 8 -45 -1 -27 4 -53 10 -57 11 -7 17 -52 31 -204 3 -40 10 -65 15 -62 6 4
7 -2 3 -16 -5 -15 -2 -25 6 -31 8 -5 9 -9 4 -9 -12 0 -8 -68 5 -85 13 -18 21
-65 10 -65 -6 0 -6 -8 -1 -22 5 -13 17 -61 26 -108 23 -112 35 -133 95 -163 8
-4 -2 -5 -23 -3 -26 3 -35 1 -31 -6 5 -8 1 -9 -10 -5 -10 4 -38 7 -62 7 -35 0
-44 3 -44 18 0 14 -2 15 -10 2 -9 -14 -60 -23 -60 -10 0 4 9 15 19 24 15 13
20 14 24 4 3 -7 4 30 3 82 -1 52 -5 101 -9 108 -5 7 -6 25 -2 41 3 17 2 32 -4
36 -6 3 -11 22 -11 42 0 20 -9 46 -21 61 -23 29 -27 31 -40 10 -5 -7 -9 -8 -9
-3 0 10 -57 11 -210 5 -63 -2 -75 0 -74 12 1 16 -20 18 -33 3 -4 -4 -3 -5 4
-1 24 14 9 -39 -19 -65 -28 -26 -38 -47 -16 -33 7 4 1 -8 -12 -26 -14 -19 -25
-41 -27 -49 -1 -8 -6 -17 -11 -20 -6 -3 -21 -27 -35 -53 -14 -26 -27 -45 -30
-42 -2 3 -7 -2 -10 -10 -4 -11 -1 -13 11 -9 14 6 15 4 6 -8 -15 -17 -10 -64 7
-86 7 -8 24 -19 37 -24 14 -5 23 -12 20 -14 -3 -3 -21 1 -40 9 -20 9 -39 12
-42 8 -4 -3 -12 0 -17 8 -8 11 -9 10 -4 -8 6 -20 4 -21 -20 -12 -15 6 -46 8
-70 6 -25 -2 -42 1 -39 5 3 5 10 9 15 9 18 0 80 52 76 64 -2 6 11 27 30 46 18
19 33 43 33 52 0 26 11 48 21 42 5 -3 6 -10 3 -16 -4 -7 -2 -8 4 -4 9 5 9 13
2 27 -7 11 -7 19 -1 19 5 0 12 -6 15 -12 3 -7 4 -4 1 8 -3 11 2 29 11 40 8 10
12 13 8 5 -5 -10 -3 -12 5 -7 9 6 9 11 -1 24 -11 13 -11 14 1 8 9 -6 12 -5 9
5 -3 8 4 22 15 32 11 9 17 17 14 17 -4 0 5 20 18 45 14 25 25 47 25 50 -1 25
1 27 14 16 11 -9 15 -8 20 4 3 9 2 13 -4 10 -6 -3 -10 -2 -10 4 0 5 5 13 10
16 6 4 8 10 5 15 -3 4 1 10 9 13 8 3 19 22 26 42 9 27 16 35 29 30 13 -5 14
-4 4 6 -7 7 -13 17 -13 23 0 5 3 6 7 3 10 -11 35 31 27 46 -4 6 -3 8 1 4 5 -4
16 7 25 25 9 18 22 32 29 30 9 -2 9 3 0 20 -6 13 -8 20 -4 16 5 -5 16 10 26
33 10 22 23 38 29 34 6 -3 7 0 4 9 -4 9 -1 16 6 16 7 0 10 7 6 15 -3 9 1 18 9
21 8 3 11 12 8 21 -4 11 -2 14 5 9 8 -5 10 -2 6 8 -3 9 -1 16 4 16 6 0 14 9
17 21 7 23 39 39 70 35 14 -2 20 -11 21 -37z m-521 -989 c3 -5 1 -10 -4 -10
-6 0 -11 5 -11 10 0 6 2 10 4 10 3 0 8 -4 11 -10z"/>
<path d="M1967 2052 c14 -9 12 -37 -4 -53 -6 -6 -9 -18 -6 -27 4 -9 2 -13 -4
-9 -12 8 -27 -20 -24 -42 1 -7 -2 -10 -8 -6 -6 3 -12 0 -13 -7 -5 -49 -18 -71
-33 -58 -11 9 -12 7 -8 -9 3 -13 1 -21 -7 -21 -7 0 -10 -7 -6 -16 4 -10 -5
-26 -25 -45 -17 -16 -24 -26 -14 -23 17 7 17 6 0 -20 -10 -15 -24 -25 -31 -22
-7 3 -16 0 -20 -6 -4 -7 -3 -8 4 -4 7 4 12 3 12 -3 0 -5 7 -8 16 -7 10 2 55
73 110 174 79 144 93 175 84 192 -6 11 -16 20 -23 20 -9 0 -9 -2 0 -8z"/>
<path d="M2006 2020 c7 -56 44 -312 50 -346 l6 -31 -53 -5 c-30 -3 -93 -4
-142 -3 -62 2 -87 -1 -84 -9 2 -6 14 -10 26 -9 15 2 20 -1 15 -9 -4 -7 -3 -8
5 -4 21 13 189 10 206 -4 13 -11 14 -10 9 5 -5 12 -4 16 3 12 11 -7 24 14 28
48 2 11 -3 51 -11 89 -7 38 -11 88 -8 110 4 29 3 37 -4 27 -7 -10 -10 -2 -10
30 1 24 -8 64 -20 89 l-20 45 4 -35z"/>
<path d="M2102 1920 c0 -14 2 -19 5 -12 2 6 2 18 0 25 -3 6 -5 1 -5 -13z"/>
<path d="M1925 1708 l-70 -29 67 4 c74 3 81 6 76 34 -3 18 -7 17 -73 -9z"/>
<path d="M1774 1655 c-18 -14 -18 -14 4 -8 12 3 22 9 22 14 0 12 -3 11 -26 -6z"/>
<path d="M2181 1474 c0 -11 3 -14 6 -6 3 7 2 16 -1 19 -3 4 -6 -2 -5 -13z"/>
<path d="M1655 1469 c-4 -6 -5 -12 -2 -15 2 -3 7 2 10 11 7 17 1 20 -8 4z"/>
<path d="M2180 1370 c0 -5 5 -10 11 -10 5 0 7 5 4 10 -3 6 -8 10 -11 10 -2 0
-4 -4 -4 -10z"/>
<path d="M2771 2010 c-38 -11 -56 -22 -62 -38 -10 -26 -7 -27 57 -6 57 19 67
27 62 46 -2 12 -11 12 -57 -2z"/>
<path d="M2345 1867 c-114 -42 -140 -55 -137 -69 2 -10 5 -18 7 -18 3 0 268
92 271 94 7 5 13 46 7 45 -4 0 -71 -24 -148 -52z"/>
<path d="M3250 1905 c0 -2 6 -8 13 -14 10 -8 14 -7 14 2 0 8 -6 14 -14 14 -7
0 -13 -1 -13 -2z"/>
<path d="M4487 1899 c7 -7 15 -10 18 -7 3 3 -2 9 -12 12 -14 6 -15 5 -6 -5z"/>
<path d="M3141 1829 c-59 -39 -111 -94 -111 -117 0 -26 24 -21 60 12 83 74 88
39 34 -206 -48 -210 -53 -348 -15 -379 55 -45 121 -12 245 122 88 95 170 228
110 178 -16 -13 -16 -12 -3 8 7 13 19 25 26 27 15 6 12 -35 -11 -139 -30 -134
-15 -229 33 -210 9 4 39 15 66 26 32 12 70 38 104 73 48 49 52 56 41 76 l-12
23 -24 -31 c-21 -27 -82 -72 -97 -72 -18 0 -9 73 42 339 l57 299 -25 5 c-14 3
-39 3 -56 0 -30 -5 -32 -7 -49 -96 -36 -181 -123 -350 -237 -464 -61 -62 -87
-73 -106 -47 -21 28 -16 82 27 283 43 203 49 274 24 309 -22 32 -54 27 -123
-19z m99 -6 c0 -8 4 -12 8 -9 5 3 9 -8 10 -25 0 -16 -2 -27 -6 -25 -4 2 -8 -7
-9 -21 -1 -19 1 -22 8 -12 7 11 9 11 9 -3 0 -10 -5 -18 -11 -18 -5 0 -8 -4 -4
-9 3 -5 0 -31 -6 -58 -6 -26 -13 -59 -15 -73 -2 -14 -12 -63 -23 -110 -29
-120 -28 -189 4 -226 15 -17 28 -25 33 -19 10 14 55 39 47 26 -3 -6 -2 -11 4
-11 10 0 26 19 26 32 0 14 15 20 15 6 0 -9 -19 -31 -42 -50 -24 -18 -51 -42
-60 -53 -10 -12 -17 -15 -18 -7 0 6 6 12 13 13 9 0 9 2 -1 6 -6 2 -10 9 -7 13
3 5 1 11 -4 15 -6 3 -8 -3 -6 -15 2 -11 0 -20 -6 -20 -5 0 -8 -6 -7 -12 3 -12
-16 -14 -72 -9 -12 1 -12 3 -2 10 11 7 11 9 -2 14 -9 4 -16 11 -16 17 0 6 6 8
13 4 8 -5 8 -3 -2 9 -12 16 -11 55 6 105 4 15 3 15 -7 2 -10 -12 -11 -10 -5
10 3 14 15 70 26 125 12 55 31 134 44 175 17 56 20 80 12 95 -7 14 -7 20 2 23
7 2 -2 15 -21 28 -18 14 -39 22 -48 19 -8 -3 -4 3 10 14 13 11 27 19 30 19 14
-1 50 15 50 23 0 5 7 6 15 3 8 -4 15 -13 15 -21z m416 -2 c-14 -50 -26 -101
-25 -108 3 -20 -2 -44 -8 -40 -5 3 -9 -16 -10 -42 -1 -25 -14 -107 -29 -181
-31 -151 -38 -256 -17 -238 12 10 17 4 14 -14 -2 -13 10 -9 36 12 14 11 31 20
37 20 6 -1 -2 -8 -17 -16 -15 -8 -25 -19 -22 -25 4 -5 3 -9 -2 -8 -15 3 -73
-14 -79 -22 -3 -5 -10 -9 -15 -9 -6 0 -7 6 -3 13 6 9 4 9 -8 -1 -14 -11 -18
-10 -26 5 -10 20 -6 67 9 94 12 24 11 38 -2 19 -9 -12 -10 -12 -5 3 3 10 6 28
6 40 0 17 2 19 10 7 6 -10 9 -3 10 25 0 22 2 61 3 87 1 25 -1 44 -5 42 -4 -3
-8 1 -9 8 0 10 -2 10 -6 1 -2 -7 -9 -13 -15 -13 -6 0 -6 6 2 15 7 8 16 13 20
10 5 -3 12 0 16 6 4 8 3 9 -4 5 -18 -11 -14 10 8 51 11 21 20 48 20 60 0 13 9
31 19 40 15 12 17 21 11 34 -7 12 -5 26 5 46 8 15 15 36 15 45 0 34 12 47 41
46 22 -1 28 -5 25 -17z m-576 -75 c0 -2 -8 -10 -17 -17 -16 -13 -17 -12 -4 4
13 16 21 21 21 13z m370 -341 c0 -2 -6 -8 -13 -14 -10 -8 -14 -7 -14 2 0 8 6
14 14 14 7 0 13 -1 13 -2z m-76 -90 c-14 -19 -29 -35 -31 -35 -3 0 0 7 7 15 7
8 9 15 5 15 -6 0 36 39 43 40 2 0 -9 -16 -24 -35z"/>
<path d="M3189 1783 c-13 -16 -12 -17 4 -4 9 7 17 15 17 17 0 8 -8 3 -21 -13z"/>
<path d="M3176 1557 c3 -10 9 -15 12 -12 3 3 0 11 -7 18 -10 9 -11 8 -5 -6z"/>
<path d="M3165 1520 c3 -5 8 -10 11 -10 2 0 4 5 4 10 0 6 -5 10 -11 10 -5 0
-7 -4 -4 -10z"/>
<path d="M3526 1227 c3 -10 9 -15 12 -12 3 3 0 11 -7 18 -10 9 -11 8 -5 -6z"/>
<path d="M3486 1178 c3 -5 10 -6 15 -3 13 9 11 12 -6 12 -8 0 -12 -4 -9 -9z"/>
<path d="M3869 1847 c-38 -23 -91 -68 -122 -104 -15 -17 -16 -26 -8 -41 10
-19 13 -18 50 19 52 52 71 52 71 -3 0 -35 -63 -383 -86 -473 l-6 -24 65 26 64
25 13 57 c25 115 147 336 216 390 34 26 66 27 89 1 37 -40 83 -12 92 57 5 35
2 42 -28 67 -40 34 -81 31 -134 -9 -41 -32 -115 -133 -168 -230 -21 -38 -36
-61 -33 -50 66 252 38 362 -75 292z m376 -17 c-3 -5 0 -12 6 -15 5 -4 8 -14 5
-24 -5 -14 -4 -13 8 2 17 22 25 22 23 -3 -1 -11 -5 -20 -9 -20 -4 0 -5 -6 -2
-13 3 -8 -3 -20 -12 -28 -11 -9 -15 -9 -10 -2 4 7 2 21 -4 30 -11 17 -11 17
-6 1 7 -22 -7 -23 -40 -2 -13 9 -27 14 -31 10 -9 -9 -34 15 -26 27 3 6 1 7 -6
3 -9 -6 -9 -11 0 -23 10 -12 10 -16 -1 -23 -8 -5 -17 -7 -21 -4 -4 2 -12 -3
-19 -11 -7 -8 -16 -15 -21 -15 -4 0 2 10 14 23 14 14 25 19 30 12 5 -6 7 -1 4
12 -6 27 18 50 70 68 38 13 58 11 48 -5z m-299 -5 c17 -17 18 -35 2 -36 -10 0
-10 -2 0 -6 13 -5 16 -52 6 -90 -4 -13 -11 -20 -16 -17 -6 4 -5 -3 1 -15 7
-11 8 -21 3 -21 -4 0 -8 -27 -8 -60 -1 -58 0 -59 18 -43 23 21 23 10 -1 -36
-35 -67 -63 -135 -66 -163 -6 -44 -24 -71 -46 -65 -10 3 -19 1 -19 -4 0 -5 -4
-9 -9 -9 -6 0 -8 9 -5 20 2 11 6 30 9 43 3 12 10 51 16 86 5 36 12 68 14 72 3
4 7 23 9 42 3 20 10 55 17 79 17 61 18 176 2 190 -9 7 -13 7 -13 -1 0 -6 5
-11 12 -11 6 0 9 -3 6 -6 -4 -3 -15 -1 -26 5 -16 9 -25 6 -46 -16 -15 -15 -24
-19 -21 -10 7 17 55 52 55 40 0 -4 7 3 16 16 13 18 18 20 25 10 7 -11 9 -11 9
1 0 20 38 23 56 5z m324 -5 c0 -5 -2 -10 -4 -10 -3 0 -8 5 -11 10 -3 6 -1 10
4 10 6 0 11 -4 11 -10z m-190 -123 c0 -2 -10 -12 -22 -23 l-23 -19 19 23 c18
21 26 27 26 19z m-47 -54 c-7 -2 -13 -10 -13 -17 0 -7 -10 -21 -22 -32 -23
-19 -23 -19 -7 1 9 11 19 28 22 38 4 9 12 17 19 16 10 0 10 -2 1 -6z"/>
<path d="M3920 1781 c0 -6 4 -13 10 -16 6 -3 7 1 4 9 -7 18 -14 21 -14 7z"/>
<path d="M3901 1724 c0 -11 3 -14 6 -6 3 7 2 16 -1 19 -3 4 -6 -2 -5 -13z"/>
<path d="M4528 1856 c-86 -31 -194 -140 -254 -257 -27 -55 -66 -189 -55 -189
15 0 206 87 351 160 124 62 143 75 156 105 53 128 -58 231 -198 181z m92 -12
c0 -12 -14 -34 -22 -34 -5 0 -6 5 -2 12 5 7 3 8 -6 3 -7 -4 -22 -9 -34 -10
-11 -1 -26 -3 -33 -4 -6 0 -31 -22 -56 -47 -25 -25 -48 -41 -51 -36 -8 13 3
42 16 42 6 0 7 -7 4 -16 -3 -9 -2 -12 5 -9 6 4 8 13 5 20 -3 8 2 19 10 25 8 7
14 9 14 4 0 -4 13 5 30 21 16 16 32 26 36 23 3 -3 17 -3 32 1 27 8 52 10 52 5z
m53 -13 c5 -1 5 -6 1 -13 -5 -7 -2 -9 8 -5 12 4 15 0 13 -18 -1 -14 2 -22 6
-19 18 11 22 -50 6 -79 -10 -16 -14 -34 -10 -40 4 -6 0 -8 -10 -4 -10 3 -17 2
-17 -4 0 -6 -4 -7 -10 -4 -5 3 -10 1 -10 -5 0 -6 -4 -9 -9 -5 -6 3 -14 -3 -20
-12 -9 -15 -12 -16 -20 -3 -11 16 -5 30 13 30 7 0 13 6 14 13 1 6 4 41 8 76 6
54 5 63 -7 56 -11 -7 -11 -5 1 10 9 11 10 16 3 11 -7 -4 -13 -3 -13 2 0 14 10
20 28 17 9 -2 21 -4 25 -4z m-65 -43 c17 -17 15 -64 -5 -106 -36 -76 -172
-182 -233 -182 -17 0 -19 4 -14 28 11 54 75 170 114 211 56 58 110 77 138 49z
m-207 -95 c-29 -35 -71 -154 -67 -186 3 -22 -2 -31 -18 -36 -11 -5 -27 -6 -35
-3 -10 4 -12 1 -6 -8 5 -8 3 -11 -6 -8 -19 7 -14 43 14 100 13 26 19 44 13 41
-6 -4 -2 3 8 15 11 12 24 32 31 45 6 12 19 21 29 20 13 -1 15 2 8 9 -16 16 19
60 35 46 10 -8 8 -16 -6 -35z"/>
<path d="M4667 1785 c-4 -8 -3 -16 1 -19 4 -3 9 4 9 15 2 23 -3 25 -10 4z"/>
<path d="M4341 1644 c0 -11 3 -14 6 -6 3 7 2 16 -1 19 -3 4 -6 -2 -5 -13z"/>
<path d="M4308 1483 c7 -3 16 -2 19 1 4 3 -2 6 -13 5 -11 0 -14 -3 -6 -6z"/>
</g>
</svg>
